<svg width="18" height="16" viewBox="0 0 18 16" fill="none" xmlns="http://www.w3.org/2000/svg">
<path fill-rule="evenodd" clip-rule="evenodd" d="M7.00011 15.1704C6.59674 15.0763 6.34603 14.673 6.44015 14.2696L9.59931 0.730381C9.69343 0.327003 10.0967 0.0763006 10.5001 0.170422V0.170422C10.9035 0.264544 11.1542 0.667847 11.0601 1.07123L7.90092 14.6105C7.8068 15.0138 7.40349 15.2645 7.00011 15.1704V15.1704ZM3.93945 3.67042C4.23235 3.37753 4.70722 3.37753 5.00011 3.67042V3.67042C5.29301 3.96332 5.29301 4.43819 5.00011 4.73108L2.76788 6.96332C2.37736 7.35384 2.37736 7.987 2.76788 8.37753L5.00011 10.6098C5.29301 10.9027 5.29301 11.3775 5.00011 11.6704V11.6704C4.70722 11.9633 4.23235 11.9633 3.93945 11.6704L0.64656 8.37753C0.256036 7.987 0.256035 7.35384 0.646559 6.96332L3.93945 3.67042ZM15.2323 8.37753C15.6229 7.987 15.6229 7.35384 15.2323 6.96332L13.0001 4.73108C12.7072 4.43819 12.7072 3.96332 13.0001 3.67042V3.67042C13.293 3.37753 13.7679 3.37753 14.0608 3.67042L17.3537 6.96332C17.7442 7.35384 17.7442 7.987 17.3537 8.37753L14.0608 11.6704C13.7679 11.9633 13.293 11.9633 13.0001 11.6704V11.6704C12.7072 11.3775 12.7072 10.9027 13.0001 10.6098L15.2323 8.37753Z" fill="#333333"/>
</svg>
