<svg width="18" height="17" viewBox="0 0 18 17" fill="none" xmlns="http://www.w3.org/2000/svg">
<path d="M15.2198 0.304842C15.0314 0.110011 14.772 0 14.5009 0H1.875C1.32272 0 0.875 0.447715 0.875 1V15.25C0.875 15.8023 1.32272 16.25 1.875 16.25H16.125C16.6773 16.25 17.125 15.8023 17.125 15.25V2.67943C17.125 2.42002 17.0242 2.17075 16.8439 1.98427L15.2198 0.304842ZM6.25 15C5.69772 15 5.25 14.5523 5.25 14V10.375C5.25 9.82272 5.69772 9.375 6.25 9.375H11.75C12.3023 9.375 12.75 9.82272 12.75 10.375V14C12.75 14.5523 12.3023 15 11.75 15H6.25ZM15.875 14.0625C15.875 14.5803 15.4553 15 14.9375 15V15C14.4197 15 14 14.5803 14 14.0625V9.375C14 9.04348 13.8683 8.72554 13.6339 8.49112C13.3995 8.2567 13.0815 8.125 12.75 8.125H5.25C4.91848 8.125 4.60054 8.2567 4.36612 8.49112C4.1317 8.72554 4 9.04348 4 9.375V14.0625C4 14.5803 3.58027 15 3.0625 15V15C2.54473 15 2.125 14.5803 2.125 14.0625V2.1875C2.125 1.66973 2.54473 1.25 3.0625 1.25V1.25C3.58027 1.25 4 1.66973 4 2.1875V2.75C4 3.30228 4.44772 3.75 5 3.75H13C13.5523 3.75 14 3.30228 14 2.75V1.52652C14 1.3738 14.1238 1.25 14.2765 1.25V1.25C14.3514 1.25 14.4232 1.28041 14.4753 1.33426L15.5937 2.4905C15.7741 2.67699 15.875 2.9263 15.875 3.18577V14.0625Z" fill="#464646"/>
</svg>
