<svg width="21" height="21" viewBox="0 0 21 21" fill="none" xmlns="http://www.w3.org/2000/svg">
<path d="M19.375 9.43291V10.6921C19.375 10.8099 19.2927 10.9117 19.1775 10.9365L18.166 11.1539C17.5054 11.2959 17.0274 11.7931 16.8308 12.3702C16.7322 12.6598 16.6148 12.9427 16.4794 13.2169C16.2091 13.7643 16.1946 14.4551 16.5619 15.0237L17.1233 15.8931C17.1872 15.992 17.1734 16.1222 17.0901 16.2055L16.2055 17.0901C16.1222 17.1734 15.992 17.1872 15.8931 17.1233L15.0236 16.5618C14.4551 16.1946 13.7644 16.209 13.217 16.4793C12.9427 16.6148 12.6599 16.7322 12.3703 16.8308C11.7932 17.0274 11.2959 17.5054 11.1539 18.1661L10.9365 19.1775C10.9117 19.2927 10.8099 19.375 10.6921 19.375H9.43291C9.31508 19.375 9.21325 19.2927 9.18849 19.1775L8.9711 18.166C8.82912 17.5054 8.33191 17.0274 7.75476 16.8308C7.46517 16.7322 7.18231 16.6148 6.90808 16.4794C6.36072 16.2091 5.6699 16.1946 5.1013 16.5619L4.23192 17.1233C4.13296 17.1872 4.00281 17.1734 3.91951 17.0901L3.0349 16.2055C2.9516 16.1222 2.93775 15.992 3.00167 15.8931L3.56323 15.0236C3.93036 14.4551 3.91602 13.7644 3.6457 13.217C3.51024 12.9427 3.39281 12.6599 3.29418 12.3703C3.09761 11.7932 2.61957 11.2959 1.9589 11.1539L0.947468 10.9365C0.832272 10.9117 0.75 10.8099 0.75 10.6921V9.43291C0.75 9.31508 0.832272 9.21325 0.947468 9.18849L1.9589 8.97111C2.61957 8.82912 3.09761 8.33184 3.29418 7.75474C3.39281 7.46514 3.51024 7.18229 3.6457 6.90798C3.91602 6.36061 3.93036 5.66989 3.56323 5.10144L3.00167 4.23192C2.93775 4.13296 2.9516 4.00281 3.0349 3.91951L3.91951 3.0349C4.00281 2.9516 4.13296 2.93775 4.23192 3.00167L5.10144 3.56323C5.66989 3.93036 6.36061 3.91602 6.90798 3.6457C7.18229 3.51024 7.46514 3.39281 7.75474 3.29418C8.33184 3.09761 8.82912 2.61957 8.97111 1.9589L9.18849 0.947468C9.21325 0.832272 9.31508 0.75 9.43291 0.75H10.6921C10.8099 0.75 10.9117 0.832272 10.9365 0.947468L11.1539 1.9589C11.2959 2.61957 11.7932 3.09761 12.3703 3.29418C12.6599 3.39281 12.9427 3.51024 13.217 3.6457C13.7644 3.91602 14.4551 3.93036 15.0236 3.56323L15.8931 3.00167C15.992 2.93775 16.1222 2.9516 16.2055 3.0349L17.0901 3.91951C17.1734 4.00281 17.1872 4.13296 17.1233 4.23192L16.5618 5.10144C16.1946 5.6699 16.209 6.36061 16.4793 6.90798C16.6148 7.18229 16.7322 7.46514 16.8308 7.75473C17.0274 8.33184 17.5054 8.82912 18.1661 8.97111L19.1775 9.18849C19.2927 9.21325 19.375 9.31508 19.375 9.43291ZM6.991 13.134C7.80562 13.9486 8.91047 14.4062 10.0625 14.4062C11.2145 14.4062 12.3194 13.9486 13.134 13.134C13.9486 12.3194 14.4062 11.2145 14.4062 10.0625C14.4062 8.91047 13.9486 7.80562 13.134 6.991C12.3194 6.17639 11.2145 5.71875 10.0625 5.71875C8.91047 5.71875 7.80562 6.17639 6.991 6.991C6.17639 7.80562 5.71875 8.91047 5.71875 10.0625C5.71875 11.2145 6.17639 12.3194 6.991 13.134Z" stroke="#333333" stroke-width="1.5"/>
</svg>
